HIERARCHY
ROOT Hips
{
	OFFSET -0.001795 -0.223333 0.028219
	CHANNELS 6 Xposition Yposition Zposition Zrotation Yrotation Xrotation 
	JOINT LeftUpLeg
	{
		OFFSET 0.069520 -0.091406 -0.006815
		CHANNELS 3 Zrotation Yrotation Xrotation
		JOINT LeftLeg
		{
			OFFSET 0.034277 -0.375199 -0.004496
			CHANNELS 3 Zrotation Yrotation Xrotation
			JOINT LeftFoot
			{
				OFFSET -0.013596 -0.397961 -0.043693
				CHANNELS 3 Zrotation Yrotation Xrotation
				JOINT LeftToe
				{
					OFFSET 0.026358 -0.055791 0.119288
					CHANNELS 3 Zrotation Yrotation Xrotation
					End Site
					{
						OFFSET 0.000000 0.000000 0.000000
					}
				}
			}
		}
	}
	JOINT RightUpLeg
	{
		OFFSET -0.067670 -0.090522 -0.004320
		CHANNELS 3 Zrotation Yrotation Xrotation
		JOINT RightLeg
		{
			OFFSET -0.038290 -0.382569 -0.008850
			CHANNELS 3 Zrotation Yrotation Xrotation
			JOINT RightFoot
			{
				OFFSET 0.015774 -0.398415 -0.042312
				CHANNELS 3 Zrotation Yrotation Xrotation
				JOINT RightToe
				{
					OFFSET -0.025372 -0.048144 0.123348
					CHANNELS 3 Zrotation Yrotation Xrotation
					End Site
					{
						OFFSET 0.000000 0.000000 0.000000
					}
				}
			}
		}
	}
	JOINT Spine
	{
		OFFSET -0.002533 0.108963 -0.026696
		CHANNELS 3 Zrotation Yrotation Xrotation
		JOINT Spine1
		{
			OFFSET 0.005487 0.135180 0.001092
			CHANNELS 3 Zrotation Yrotation Xrotation
			JOINT Spine2
			{
				OFFSET 0.001457 0.052922 0.025425
				CHANNELS 3 Zrotation Yrotation Xrotation
				JOINT Neck
				{
					OFFSET -0.002778 0.213870 -0.042857
					CHANNELS 3 Zrotation Yrotation Xrotation
					JOINT Head
					{
						OFFSET 0.005152 0.064970 0.051349
						CHANNELS 3 Zrotation Yrotation Xrotation
						End Site
						{
							OFFSET 0.000000 0.000000 0.000000
						}
					}
				}
				JOINT LeftShoulder
				{
					OFFSET 0.078845 0.121749 -0.034090
					CHANNELS 3 Zrotation Yrotation Xrotation
					JOINT LeftArm
					{
						OFFSET 0.090977 0.030469 -0.008868
						CHANNELS 3 Zrotation Yrotation Xrotation
						JOINT LeftForeArm
						{
							OFFSET 0.259612 -0.012772 -0.027456
							CHANNELS 3 Zrotation Yrotation Xrotation
							JOINT LeftHand
							{
								OFFSET 0.249234 0.008986 -0.001171
								CHANNELS 3 Zrotation Yrotation Xrotation
								End Site
								{
									OFFSET 0.000000 0.000000 0.000000
								}
							}
						}
					}
				}
				JOINT RightShoulder
				{
					OFFSET -0.081759 0.118833 -0.038615
					CHANNELS 3 Zrotation Yrotation Xrotation
					JOINT RightArm
					{
						OFFSET -0.096012 0.032551 -0.009143
						CHANNELS 3 Zrotation Yrotation Xrotation
						JOINT RightForeArm
						{
							OFFSET -0.253742 -0.013329 -0.021401
							CHANNELS 3 Zrotation Yrotation Xrotation
							JOINT RightHand
							{
								OFFSET -0.255298 0.007772 -0.005559
								CHANNELS 3 Zrotation Yrotation Xrotation
								End Site
								{
									OFFSET 0.000000 0.000000 0.000000
								}
							}
						}
					}
				}
			}
		}
	}
}
MOTION
Frames: 16
Frame Time: 0.050000
0.000000 0.963137 0.000000 -1.382659 -8.637807 5.529061 4.071142 -0.457528 -8.184111 -2.670871 0.337067 5.199281 4.733034 11.221894 10.555881 0.000000 0.000000 0.000000 -3.355582 0.938256 -10.316440 2.254457 -0.013769 6.292231 -1.971667 -8.993448 9.402945 0.000000 0.000000 0.000000 5.808335 -0.705027 6.462727 -6.393241 1.946424 -26.997037 -1.146303 9.172918 32.243782 10.546659 -3.555062 -29.201968 0.000000 0.000000 0.000000 -12.703754 6.428194 -4.215621 -52.196941 13.578104 -14.358103 -27.384832 -38.054745 11.641691 0.000000 0.000000 0.000000 21.102546 -16.883882 -10.324027 51.752269 -18.180565 -14.832063 34.464597 38.807925 14.953379 0.000000 0.000000 0.000000 
-0.001096 0.962725 0.001491 -1.514581 -8.452081 5.912081 4.503173 -0.403750 -7.477141 -2.909668 0.369367 3.760438 5.080593 11.748864 9.657661 0.000000 0.000000 0.000000 -2.891886 0.985784 -10.670402 1.652728 0.072165 6.390963 -2.051839 -8.944836 8.840404 0.000000 0.000000 0.000000 5.815422 -0.648107 5.685492 -6.108071 1.892986 -26.280451 -1.430409 8.369328 31.333585 9.938844 -3.117652 -30.293170 0.000000 0.000000 0.000000 -13.177640 6.791486 -4.371109 -51.605165 13.844099 -14.191148 -29.542902 -41.592699 13.786164 0.000000 0.000000 0.000000 20.354409 -15.987892 -9.799958 53.416175 -18.147168 -15.253382 34.759004 41.044485 15.928917 0.000000 0.000000 0.000000 
-0.002100 0.961941 0.003267 -1.159716 -7.788737 5.791707 4.805449 -0.371019 -6.930250 -3.522998 0.455848 2.955014 4.370729 10.644962 10.112600 0.000000 0.000000 0.000000 -3.455686 0.906926 -10.049304 2.271505 -0.060780 5.145504 -2.257407 -9.257437 8.789572 0.000000 0.000000 0.000000 6.376900 -0.580123 4.511991 -6.506676 2.006026 -25.338649 -1.790934 7.722701 31.312058 10.286599 -3.225845 -31.086050 0.000000 0.000000 0.000000 -12.253358 5.468295 -3.528961 -52.646632 12.726820 -14.070693 -32.713049 -44.356260 16.316621 0.000000 0.000000 0.000000 20.131773 -16.167823 -9.905114 54.582853 -16.521121 -14.925642 36.685932 42.319673 17.386252 0.000000 0.000000 0.000000 
-0.003219 0.962491 0.005620 -1.163485 -7.433793 5.945942 4.903589 -0.368097 -6.851027 -3.297165 0.414746 2.330274 3.702884 9.670166 11.052224 0.000000 0.000000 0.000000 -3.539013 0.912566 -10.177997 2.333169 -0.082040 4.794445 -2.031909 -8.879440 9.079858 0.000000 0.000000 0.000000 6.386279 -0.524240 3.860745 -6.119207 1.913476 -25.953384 -2.000520 7.586420 31.691458 10.216330 -3.250493 -30.741955 0.000000 0.000000 0.000000 -13.358087 4.083703 -2.993875 -51.511533 10.870907 -13.042802 -35.925650 -49.186289 19.907484 0.000000 0.000000 0.000000 20.595369 -15.147264 -9.360602 54.517213 -14.443720 -14.118659 39.429941 45.223981 20.135869 0.000000 0.000000 0.000000 
-0.004548 0.962578 0.008484 -1.176034 -7.309069 5.540169 4.704485 -0.337993 -5.977741 -2.678896 0.324628 1.718444 3.689267 9.675774 11.129313 0.000000 0.000000 0.000000 -3.426527 0.859281 -9.516770 1.771227 -0.025226 4.382681 -2.052454 -9.007687 9.389378 0.000000 0.000000 0.000000 6.140227 -0.502814 3.851847 -5.580144 1.799142 -25.632644 -1.997484 7.358462 30.943463 10.077926 -3.231235 -30.385462 0.000000 0.000000 0.000000 -14.064587 3.438173 -2.754667 -50.938492 8.288663 -11.817337 -41.869785 -52.937857 24.988973 0.000000 0.000000 0.000000 20.991419 -14.686761 -9.211610 54.172223 -11.560070 -12.769725 42.851908 47.976585 23.248804 0.000000 0.000000 0.000000 
-0.006039 0.962242 0.011595 -1.281876 -7.533426 5.039202 4.978949 -0.290984 -5.375995 -2.558993 0.308208 2.028145 4.094230 10.293779 10.786561 0.000000 0.000000 0.000000 -3.334363 0.783631 -8.556445 1.834343 -0.035581 4.272731 -2.077835 -8.812647 8.638024 0.000000 0.000000 0.000000 6.181413 -0.496558 3.867918 -5.274293 1.726864 -25.922439 -1.800036 7.402932 30.503940 10.035662 -3.226402 -30.218857 0.000000 0.000000 0.000000 -13.900392 2.592209 -2.309403 -50.394451 5.286880 -10.483362 -51.491284 -56.881609 33.211271 0.000000 0.000000 0.000000 20.472280 -13.126215 -8.175651 55.302874 -8.166016 -11.571085 46.707164 51.878383 27.730972 0.000000 0.000000 0.000000 
-0.007741 0.961534 0.014560 -1.434263 -7.739911 4.352601 4.823236 -0.247812 -4.494120 -2.144507 0.249674 2.075053 4.482293 10.955129 10.965062 0.000000 0.000000 0.000000 -3.260471 0.711674 -7.668088 1.827027 -0.031371 4.349382 -2.094050 -8.750808 8.340888 0.000000 0.000000 0.000000 6.399552 -0.498005 3.920756 -5.134172 1.696902 -25.464867 -1.481218 7.424649 29.960344 10.035090 -3.197727 -30.358592 0.000000 0.000000 0.000000 -13.777284 1.750948 -1.874672 -49.988374 2.745404 -9.376725 -61.621262 -59.692093 42.206686 0.000000 0.000000 0.000000 19.935191 -11.961142 -7.405418 55.660112 -4.651540 -10.074043 52.542169 54.511621 33.009292 0.000000 0.000000 0.000000 
-0.009686 0.960731 0.017037 -1.755071 -7.796718 4.013260 4.848118 -0.225445 -4.144103 -1.737899 0.180046 3.186134 4.604457 10.954604 9.097345 0.000000 0.000000 0.000000 -2.485780 0.698642 -7.391467 1.462609 0.031764 4.832173 -1.876356 -7.848733 7.061534 0.000000 0.000000 0.000000 6.563791 -0.557714 4.546333 -4.905030 1.641503 -25.727365 -1.149176 7.482645 29.879028 10.061462 -3.262927 -29.976687 0.000000 0.000000 0.000000 -13.784695 1.053507 -1.537407 -49.756719 1.598431 -8.891267 -68.069766 -61.084585 48.174532 0.000000 0.000000 0.000000 20.260766 -10.282894 -6.452369 55.179431 -1.195379 -8.523706 56.131284 57.543205 37.609186 0.000000 0.000000 0.000000 
-0.012034 0.959844 0.018576 -2.063046 -8.004862 3.922503 4.995258 -0.230671 -4.477935 -1.552847 0.138996 4.693300 4.987578 11.521837 8.248984 0.000000 0.000000 0.000000 -1.926041 0.713325 -7.457387 1.498614 0.059984 5.667631 -1.756172 -7.177472 5.955116 0.000000 0.000000 0.000000 6.925186 -0.602154 4.841896 -5.014890 1.665037 -25.563134 -0.585052 8.102244 29.784865 9.690017 -2.961047 -30.026971 0.000000 0.000000 0.000000 -13.045459 0.337575 -1.211811 -49.509067 0.513745 -8.415780 -69.981941 -61.722191 49.960342 0.000000 0.000000 0.000000 20.115159 -9.614139 -5.901839 54.883333 0.489438 -7.774798 59.605130 58.529610 41.013146 0.000000 0.000000 0.000000 
-0.014551 0.959502 0.019172 -2.305568 -8.357540 4.352011 5.186127 -0.272780 -5.707130 -1.458784 0.115154 6.483585 4.878436 11.155458 6.853455 0.000000 0.000000 0.000000 -1.307817 0.776209 -7.987089 1.277545 0.124708 6.421783 -1.485651 -6.303261 5.185609 0.000000 0.000000 0.000000 7.010313 -0.678754 5.508985 -4.869443 1.621789 -26.201611 -0.507834 8.855882 30.000630 9.695990 -2.919112 -29.774178 0.000000 0.000000 0.000000 -12.681878 0.386214 -1.286627 -49.577674 0.959273 -8.601036 -65.502148 -60.698839 45.421092 0.000000 0.000000 0.000000 20.685050 -9.075309 -5.527338 53.802828 1.129099 -7.438897 56.335965 57.345257 37.961870 0.000000 0.000000 0.000000 
-0.016879 0.959809 0.019169 -2.449819 -9.223521 4.862534 5.516341 -0.309233 -7.469089 -1.853726 0.205925 8.561373 4.792262 10.875111 6.236912 0.000000 0.000000 0.000000 -0.952282 0.877701 -8.895994 1.358262 0.185179 7.856266 -1.313208 -5.427808 3.994576 0.000000 0.000000 0.000000 7.146952 -0.741784 6.012387 -5.230564 1.688846 -26.204513 0.129305 10.049254 30.481079 9.867969 -2.883204 -29.954438 0.000000 0.000000 0.000000 -12.016928 0.192875 -1.222718 -49.810836 1.856282 -9.026320 -55.886439 -59.117307 37.069031 0.000000 0.000000 0.000000 20.881645 -9.299038 -5.501176 53.508254 0.600376 -7.718135 49.282551 54.126135 31.324098 0.000000 0.000000 0.000000 
-0.018593 0.959737 0.018786 -2.174774 -9.533844 5.395322 5.259377 -0.396651 -9.577128 -2.181857 0.320551 11.861000 4.748541 10.623659 4.788407 0.000000 0.000000 0.000000 -1.046646 1.109296 -11.120382 1.170335 0.375455 10.921696 -2.197998 -7.144887 3.356131 0.000000 0.000000 0.000000 6.796781 -0.880525 7.707539 -5.047325 1.644925 -26.581320 -0.697136 10.259182 31.053348 10.092260 -3.034610 -29.893817 0.000000 0.000000 0.000000 -11.644567 2.061745 -2.054812 -49.245241 6.211826 -10.615907 -48.261958 -55.476359 29.624745 0.000000 0.000000 0.000000 20.273996 -10.046421 -5.868523 51.532093 -2.057624 -8.581430 45.274938 50.889917 26.701904 0.000000 0.000000 0.000000 
-0.019252 0.958993 0.016819 -1.905545 -9.907992 6.344891 5.214977 -0.489920 -12.745576 -2.738537 0.558265 15.500154 4.737846 10.471366 3.786530 0.000000 0.000000 0.000000 -1.157702 1.442910 -14.176307 1.266292 0.620156 15.235857 -2.420005 -6.416203 0.632523 0.000000 0.000000 0.000000 6.053061 -1.031639 10.209828 -5.305099 1.691636 -27.082700 -0.680047 10.352531 31.868020 10.571791 -3.253302 -30.409945 0.000000 0.000000 0.000000 -10.668592 4.223852 -2.931507 -48.894512 10.498224 -12.190191 -42.546462 -50.221004 23.350049 0.000000 0.000000 0.000000 19.053117 -12.376652 -7.092880 50.492597 -7.305391 -10.424791 43.151258 45.522362 22.303096 0.000000 0.000000 0.000000 
-0.018996 0.954404 0.011983 -1.891580 -9.755756 7.106053 5.009396 -0.604347 -16.797000 -3.204766 0.881693 20.733306 5.070321 10.835836 1.046035 0.000000 0.000000 0.000000 -1.402513 1.912130 -18.365876 1.957987 0.867927 21.622505 -3.766967 -8.654091 -1.925966 0.000000 0.000000 0.000000 6.266232 -1.283158 13.052979 -6.027697 1.852305 -26.373001 -1.358777 8.824485 31.425854 9.638805 -3.019734 -29.955685 0.000000 0.000000 0.000000 -10.486813 7.466120 -4.272493 -46.222433 19.358165 -14.395783 -44.287792 -46.969313 22.549444 0.000000 0.000000 0.000000 16.484223 -15.107080 -8.543749 47.772827 -15.701183 -12.608127 46.500551 43.660210 22.121271 0.000000 0.000000 0.000000 
-0.018037 0.943982 0.003072 -1.816143 -9.483025 8.775543 5.843629 -0.524959 -23.408421 -5.139649 2.029375 28.774223 5.824910 12.160415 -0.850901 0.000000 0.000000 0.000000 -2.421551 2.585377 -24.994120 3.592958 0.836118 29.406251 -4.780681 -10.320256 -4.967265 0.000000 0.000000 0.000000 5.778494 -1.469435 16.351620 -6.161550 1.864541 -26.809686 -1.447272 7.974664 32.200714 9.474173 -2.803876 -31.558434 0.000000 0.000000 0.000000 -9.944914 10.612564 -5.644414 -43.215538 26.706641 -15.635096 -44.490174 -43.865370 20.844266 0.000000 0.000000 0.000000 13.695486 -16.980115 -9.131126 43.613714 -24.168047 -14.020116 49.756457 40.855599 21.338244 0.000000 0.000000 0.000000 
-0.016834 0.926914 -0.010304 -1.627060 -8.088466 9.765288 6.179160 -0.493119 -31.206601 -5.475496 2.815703 39.764904 5.575889 11.255378 -3.080089 0.000000 0.000000 0.000000 -3.744304 3.131609 -32.297778 5.731497 0.296147 39.765844 -6.035488 -13.936196 -6.280492 0.000000 0.000000 0.000000 5.604661 -1.718832 19.925039 -6.982490 2.049608 -26.242721 -1.029047 7.354923 31.919683 10.373139 -3.020374 -32.729131 0.000000 0.000000 0.000000 -8.833556 11.599622 -5.990217 -41.669462 32.426315 -16.719161 -48.167957 -41.378239 20.827568 0.000000 0.000000 0.000000 13.107109 -20.029579 -10.636249 37.782112 -33.092977 -14.130843 50.809364 36.046184 18.486751 0.000000 0.000000 0.000000 
